<mxfile host="app.diagrams.net" modified="2022-07-12T03:49:59.035Z" agent="5.0 (Macintosh; Intel Mac OS X 10_15_7) AppleWebKit/537.36 (KHTML, like Gecko) Chrome/103.0.0.0 Safari/537.36" etag="sfd5M1ouc7t807TOjPJK" version="20.0.3" type="github">
  <diagram id="75zSL3h0ovSAFTa5UdEO" name="第 1 页">
    <mxGraphModel dx="242" dy="144" grid="1" gridSize="10" guides="1" tooltips="1" connect="1" arrows="1" fold="1" page="1" pageScale="1" pageWidth="827" pageHeight="1169" math="0" shadow="0">
      <root>
        <mxCell id="0" />
        <mxCell id="1" parent="0" />
        <mxCell id="knf7CLASAOUDxc3e1Ml9-1" value="" style="endArrow=none;html=1;rounded=0;strokeWidth=2;" edge="1" parent="1">
          <mxGeometry width="50" height="50" relative="1" as="geometry">
            <mxPoint x="67" y="640" as="sourcePoint" />
            <mxPoint x="827" y="640" as="targetPoint" />
          </mxGeometry>
        </mxCell>
        <mxCell id="knf7CLASAOUDxc3e1Ml9-3" value="" style="endArrow=none;html=1;rounded=0;strokeWidth=2;" edge="1" parent="1">
          <mxGeometry width="50" height="50" relative="1" as="geometry">
            <mxPoint x="120" y="660" as="sourcePoint" />
            <mxPoint x="120" y="190" as="targetPoint" />
          </mxGeometry>
        </mxCell>
        <mxCell id="knf7CLASAOUDxc3e1Ml9-4" value="" style="endArrow=none;html=1;rounded=0;strokeWidth=2;" edge="1" parent="1">
          <mxGeometry width="50" height="50" relative="1" as="geometry">
            <mxPoint x="190" y="440" as="sourcePoint" />
            <mxPoint x="190" y="260" as="targetPoint" />
          </mxGeometry>
        </mxCell>
        <mxCell id="knf7CLASAOUDxc3e1Ml9-5" value="" style="endArrow=none;html=1;rounded=0;strokeWidth=2;" edge="1" parent="1">
          <mxGeometry width="50" height="50" relative="1" as="geometry">
            <mxPoint x="600" y="440" as="sourcePoint" />
            <mxPoint x="600" y="260" as="targetPoint" />
          </mxGeometry>
        </mxCell>
        <mxCell id="knf7CLASAOUDxc3e1Ml9-6" value="" style="endArrow=none;html=1;rounded=0;strokeWidth=2;" edge="1" parent="1">
          <mxGeometry width="50" height="50" relative="1" as="geometry">
            <mxPoint x="300" y="540" as="sourcePoint" />
            <mxPoint x="520" y="540" as="targetPoint" />
          </mxGeometry>
        </mxCell>
        <mxCell id="knf7CLASAOUDxc3e1Ml9-7" value="" style="endArrow=none;html=1;rounded=0;strokeWidth=2;" edge="1" parent="1">
          <mxGeometry width="50" height="50" relative="1" as="geometry">
            <mxPoint x="300" y="180" as="sourcePoint" />
            <mxPoint x="520" y="180" as="targetPoint" />
          </mxGeometry>
        </mxCell>
        <mxCell id="knf7CLASAOUDxc3e1Ml9-8" value="" style="endArrow=none;html=1;rounded=0;strokeWidth=2;" edge="1" parent="1">
          <mxGeometry width="50" height="50" relative="1" as="geometry">
            <mxPoint x="190" y="260" as="sourcePoint" />
            <mxPoint x="300" y="180" as="targetPoint" />
          </mxGeometry>
        </mxCell>
        <mxCell id="knf7CLASAOUDxc3e1Ml9-9" value="" style="endArrow=none;html=1;rounded=0;strokeWidth=2;" edge="1" parent="1">
          <mxGeometry width="50" height="50" relative="1" as="geometry">
            <mxPoint x="600" y="260" as="sourcePoint" />
            <mxPoint x="520" y="180" as="targetPoint" />
          </mxGeometry>
        </mxCell>
        <mxCell id="knf7CLASAOUDxc3e1Ml9-10" value="" style="endArrow=none;html=1;rounded=0;strokeWidth=2;" edge="1" parent="1">
          <mxGeometry width="50" height="50" relative="1" as="geometry">
            <mxPoint x="300" y="540" as="sourcePoint" />
            <mxPoint x="190" y="440" as="targetPoint" />
          </mxGeometry>
        </mxCell>
        <mxCell id="knf7CLASAOUDxc3e1Ml9-11" value="" style="endArrow=none;html=1;rounded=0;strokeWidth=2;" edge="1" parent="1">
          <mxGeometry width="50" height="50" relative="1" as="geometry">
            <mxPoint x="520" y="540" as="sourcePoint" />
            <mxPoint x="600" y="440" as="targetPoint" />
          </mxGeometry>
        </mxCell>
        <mxCell id="knf7CLASAOUDxc3e1Ml9-13" value="" style="endArrow=none;dashed=1;html=1;rounded=0;strokeWidth=1;" edge="1" parent="1">
          <mxGeometry width="50" height="50" relative="1" as="geometry">
            <mxPoint x="190" y="640" as="sourcePoint" />
            <mxPoint x="190" y="440" as="targetPoint" />
          </mxGeometry>
        </mxCell>
        <mxCell id="knf7CLASAOUDxc3e1Ml9-14" value="" style="endArrow=none;dashed=1;html=1;rounded=0;strokeWidth=1;" edge="1" parent="1">
          <mxGeometry width="50" height="50" relative="1" as="geometry">
            <mxPoint x="520" y="220" as="sourcePoint" />
            <mxPoint x="520" y="150" as="targetPoint" />
          </mxGeometry>
        </mxCell>
        <mxCell id="knf7CLASAOUDxc3e1Ml9-15" value="yMaxRight[0]" style="text;html=1;align=center;verticalAlign=middle;resizable=0;points=[];autosize=1;strokeColor=none;fillColor=none;" vertex="1" parent="1">
          <mxGeometry x="475" y="125" width="90" height="30" as="geometry" />
        </mxCell>
        <mxCell id="knf7CLASAOUDxc3e1Ml9-16" value="" style="endArrow=none;dashed=1;html=1;rounded=0;strokeWidth=1;" edge="1" parent="1">
          <mxGeometry width="50" height="50" relative="1" as="geometry">
            <mxPoint x="490" y="180" as="sourcePoint" />
            <mxPoint x="580" y="180" as="targetPoint" />
          </mxGeometry>
        </mxCell>
        <mxCell id="knf7CLASAOUDxc3e1Ml9-17" value="&lt;font style=&quot;font-size: 8px;&quot;&gt;yMaxRight[1]&lt;/font&gt;" style="text;html=1;align=center;verticalAlign=middle;resizable=0;points=[];autosize=1;strokeColor=none;fillColor=none;" vertex="1" parent="1">
          <mxGeometry x="580" y="155" width="80" height="30" as="geometry" />
        </mxCell>
        <mxCell id="knf7CLASAOUDxc3e1Ml9-18" value="" style="endArrow=none;dashed=1;html=1;rounded=0;fontSize=8;strokeWidth=1;" edge="1" parent="1">
          <mxGeometry width="50" height="50" relative="1" as="geometry">
            <mxPoint x="560" y="260" as="sourcePoint" />
            <mxPoint x="630" y="260" as="targetPoint" />
          </mxGeometry>
        </mxCell>
        <mxCell id="knf7CLASAOUDxc3e1Ml9-19" value="xMaxUp[1]" style="text;html=1;align=center;verticalAlign=middle;resizable=0;points=[];autosize=1;strokeColor=none;fillColor=none;fontSize=8;" vertex="1" parent="1">
          <mxGeometry x="620" y="245" width="70" height="30" as="geometry" />
        </mxCell>
        <mxCell id="knf7CLASAOUDxc3e1Ml9-21" value="" style="endArrow=none;dashed=1;html=1;rounded=0;fontSize=8;strokeWidth=1;" edge="1" parent="1">
          <mxGeometry width="50" height="50" relative="1" as="geometry">
            <mxPoint x="600" y="280" as="sourcePoint" />
            <mxPoint x="600" y="220" as="targetPoint" />
          </mxGeometry>
        </mxCell>
        <mxCell id="knf7CLASAOUDxc3e1Ml9-22" value="xMaxUp[0]" style="text;html=1;align=center;verticalAlign=middle;resizable=0;points=[];autosize=1;strokeColor=none;fillColor=none;fontSize=8;" vertex="1" parent="1">
          <mxGeometry x="600" y="215" width="70" height="30" as="geometry" />
        </mxCell>
        <mxCell id="knf7CLASAOUDxc3e1Ml9-23" value="" style="endArrow=none;html=1;rounded=0;fontSize=8;strokeWidth=1;" edge="1" parent="1">
          <mxGeometry width="50" height="50" relative="1" as="geometry">
            <mxPoint x="520" y="180" as="sourcePoint" />
            <mxPoint x="590" y="200" as="targetPoint" />
          </mxGeometry>
        </mxCell>
        <mxCell id="knf7CLASAOUDxc3e1Ml9-24" value="" style="endArrow=none;dashed=1;html=1;rounded=0;fontSize=8;strokeWidth=1;" edge="1" parent="1">
          <mxGeometry width="50" height="50" relative="1" as="geometry">
            <mxPoint x="570" y="200" as="sourcePoint" />
            <mxPoint x="630" y="200" as="targetPoint" />
          </mxGeometry>
        </mxCell>
        <mxCell id="knf7CLASAOUDxc3e1Ml9-26" value="" style="endArrow=none;dashed=1;html=1;rounded=0;fontSize=8;strokeWidth=1;" edge="1" parent="1">
          <mxGeometry width="50" height="50" relative="1" as="geometry">
            <mxPoint x="590" y="219" as="sourcePoint" />
            <mxPoint x="590" y="189" as="targetPoint" />
          </mxGeometry>
        </mxCell>
        <mxCell id="knf7CLASAOUDxc3e1Ml9-27" value="a" style="text;html=1;align=center;verticalAlign=middle;resizable=0;points=[];autosize=1;strokeColor=none;fillColor=none;fontSize=8;" vertex="1" parent="1">
          <mxGeometry x="580" y="175" width="30" height="30" as="geometry" />
        </mxCell>
        <mxCell id="knf7CLASAOUDxc3e1Ml9-28" value="b" style="text;html=1;align=center;verticalAlign=middle;resizable=0;points=[];autosize=1;strokeColor=none;fillColor=none;fontSize=8;" vertex="1" parent="1">
          <mxGeometry x="620" y="185" width="30" height="30" as="geometry" />
        </mxCell>
        <mxCell id="knf7CLASAOUDxc3e1Ml9-29" value="" style="endArrow=none;dashed=1;html=1;rounded=0;fontSize=8;strokeWidth=1;" edge="1" parent="1">
          <mxGeometry width="50" height="50" relative="1" as="geometry">
            <mxPoint x="190" y="265" as="sourcePoint" />
            <mxPoint x="190" y="130" as="targetPoint" />
          </mxGeometry>
        </mxCell>
        <mxCell id="knf7CLASAOUDxc3e1Ml9-30" value="" style="endArrow=none;dashed=1;html=1;rounded=0;fontSize=8;strokeWidth=1;" edge="1" parent="1">
          <mxGeometry width="50" height="50" relative="1" as="geometry">
            <mxPoint x="160" y="180" as="sourcePoint" />
            <mxPoint x="300" y="180" as="targetPoint" />
          </mxGeometry>
        </mxCell>
        <mxCell id="knf7CLASAOUDxc3e1Ml9-32" value="" style="endArrow=none;dashed=1;html=1;rounded=0;fontSize=8;strokeWidth=1;" edge="1" parent="1">
          <mxGeometry width="50" height="50" relative="1" as="geometry">
            <mxPoint x="120" y="540" as="sourcePoint" />
            <mxPoint x="300" y="540" as="targetPoint" />
          </mxGeometry>
        </mxCell>
        <mxCell id="knf7CLASAOUDxc3e1Ml9-33" value="" style="endArrow=none;html=1;rounded=0;fontSize=8;strokeWidth=1;" edge="1" parent="1">
          <mxGeometry width="50" height="50" relative="1" as="geometry">
            <mxPoint x="240" y="510" as="sourcePoint" />
            <mxPoint x="300" y="540" as="targetPoint" />
          </mxGeometry>
        </mxCell>
        <mxCell id="knf7CLASAOUDxc3e1Ml9-34" value="" style="endArrow=none;dashed=1;html=1;rounded=0;fontSize=8;strokeWidth=1;" edge="1" parent="1">
          <mxGeometry width="50" height="50" relative="1" as="geometry">
            <mxPoint x="240" y="570" as="sourcePoint" />
            <mxPoint x="240" y="510" as="targetPoint" />
          </mxGeometry>
        </mxCell>
        <mxCell id="knf7CLASAOUDxc3e1Ml9-35" value="a" style="text;html=1;align=center;verticalAlign=middle;resizable=0;points=[];autosize=1;strokeColor=none;fillColor=none;fontSize=8;" vertex="1" parent="1">
          <mxGeometry x="230" y="560" width="30" height="30" as="geometry" />
        </mxCell>
        <mxCell id="knf7CLASAOUDxc3e1Ml9-38" value="" style="endArrow=none;dashed=1;html=1;rounded=0;fontSize=8;strokeWidth=1;" edge="1" parent="1">
          <mxGeometry width="50" height="50" relative="1" as="geometry">
            <mxPoint x="160" y="510" as="sourcePoint" />
            <mxPoint x="240" y="510" as="targetPoint" />
          </mxGeometry>
        </mxCell>
        <mxCell id="knf7CLASAOUDxc3e1Ml9-39" value="b" style="text;html=1;align=center;verticalAlign=middle;resizable=0;points=[];autosize=1;strokeColor=none;fillColor=none;fontSize=8;" vertex="1" parent="1">
          <mxGeometry x="145" y="485" width="30" height="30" as="geometry" />
        </mxCell>
        <mxCell id="knf7CLASAOUDxc3e1Ml9-40" value="" style="endArrow=none;dashed=1;html=1;rounded=0;fontSize=8;strokeWidth=1;" edge="1" parent="1">
          <mxGeometry width="50" height="50" relative="1" as="geometry">
            <mxPoint x="520" y="540" as="sourcePoint" />
            <mxPoint x="660" y="540" as="targetPoint" />
          </mxGeometry>
        </mxCell>
        <mxCell id="knf7CLASAOUDxc3e1Ml9-41" value="" style="endArrow=none;dashed=1;html=1;rounded=0;fontSize=8;strokeWidth=1;" edge="1" parent="1">
          <mxGeometry width="50" height="50" relative="1" as="geometry">
            <mxPoint x="600" y="570" as="sourcePoint" />
            <mxPoint x="600" y="440" as="targetPoint" />
          </mxGeometry>
        </mxCell>
        <mxCell id="knf7CLASAOUDxc3e1Ml9-42" value="" style="endArrow=none;html=1;rounded=0;fontSize=8;strokeWidth=1;" edge="1" parent="1">
          <mxGeometry width="50" height="50" relative="1" as="geometry">
            <mxPoint x="570" y="510" as="sourcePoint" />
            <mxPoint x="600" y="440" as="targetPoint" />
          </mxGeometry>
        </mxCell>
        <mxCell id="knf7CLASAOUDxc3e1Ml9-43" value="" style="endArrow=none;dashed=1;html=1;rounded=0;fontSize=8;strokeWidth=1;" edge="1" parent="1">
          <mxGeometry width="50" height="50" relative="1" as="geometry">
            <mxPoint x="565" y="510" as="sourcePoint" />
            <mxPoint x="635" y="510" as="targetPoint" />
          </mxGeometry>
        </mxCell>
        <mxCell id="knf7CLASAOUDxc3e1Ml9-44" value="b" style="text;html=1;align=center;verticalAlign=middle;resizable=0;points=[];autosize=1;strokeColor=none;fillColor=none;fontSize=8;" vertex="1" parent="1">
          <mxGeometry x="625" y="495" width="30" height="30" as="geometry" />
        </mxCell>
        <mxCell id="knf7CLASAOUDxc3e1Ml9-45" value="" style="endArrow=none;dashed=1;html=1;rounded=0;fontSize=8;strokeWidth=1;" edge="1" parent="1">
          <mxGeometry width="50" height="50" relative="1" as="geometry">
            <mxPoint x="570" y="575" as="sourcePoint" />
            <mxPoint x="570" y="495" as="targetPoint" />
          </mxGeometry>
        </mxCell>
        <mxCell id="knf7CLASAOUDxc3e1Ml9-46" value="a" style="text;html=1;align=center;verticalAlign=middle;resizable=0;points=[];autosize=1;strokeColor=none;fillColor=none;fontSize=8;" vertex="1" parent="1">
          <mxGeometry x="550" y="570" width="30" height="30" as="geometry" />
        </mxCell>
        <mxCell id="knf7CLASAOUDxc3e1Ml9-47" value="" style="endArrow=none;html=1;rounded=0;fontSize=8;strokeWidth=1;" edge="1" parent="1">
          <mxGeometry width="50" height="50" relative="1" as="geometry">
            <mxPoint x="190" y="260" as="sourcePoint" />
            <mxPoint x="230" y="200" as="targetPoint" />
          </mxGeometry>
        </mxCell>
        <mxCell id="knf7CLASAOUDxc3e1Ml9-48" value="" style="endArrow=none;dashed=1;html=1;dashPattern=1 3;strokeWidth=2;rounded=0;fontSize=8;" edge="1" parent="1">
          <mxGeometry width="50" height="50" relative="1" as="geometry">
            <mxPoint x="670" y="400" as="sourcePoint" />
            <mxPoint x="880" y="400" as="targetPoint" />
          </mxGeometry>
        </mxCell>
        <mxCell id="knf7CLASAOUDxc3e1Ml9-49" value="" style="endArrow=none;dashed=1;html=1;rounded=0;fontSize=8;strokeWidth=1;" edge="1" parent="1">
          <mxGeometry width="50" height="50" relative="1" as="geometry">
            <mxPoint x="680" y="420" as="sourcePoint" />
            <mxPoint x="680" y="290" as="targetPoint" />
          </mxGeometry>
        </mxCell>
        <mxCell id="knf7CLASAOUDxc3e1Ml9-50" value="" style="endArrow=none;html=1;rounded=0;fontSize=8;strokeWidth=1;" edge="1" parent="1">
          <mxGeometry width="50" height="50" relative="1" as="geometry">
            <mxPoint x="730" y="390" as="sourcePoint" />
            <mxPoint x="690" y="350" as="targetPoint" />
          </mxGeometry>
        </mxCell>
        <mxCell id="knf7CLASAOUDxc3e1Ml9-51" value="" style="endArrow=none;html=1;rounded=0;fontSize=8;strokeWidth=1;" edge="1" parent="1">
          <mxGeometry width="50" height="50" relative="1" as="geometry">
            <mxPoint x="750" y="390" as="sourcePoint" />
            <mxPoint x="730" y="390.00000000000006" as="targetPoint" />
          </mxGeometry>
        </mxCell>
        <mxCell id="knf7CLASAOUDxc3e1Ml9-52" value="" style="endArrow=none;html=1;rounded=0;fontSize=8;strokeWidth=1;" edge="1" parent="1">
          <mxGeometry width="50" height="50" relative="1" as="geometry">
            <mxPoint x="790" y="350" as="sourcePoint" />
            <mxPoint x="750" y="390.00000000000006" as="targetPoint" />
          </mxGeometry>
        </mxCell>
        <mxCell id="knf7CLASAOUDxc3e1Ml9-53" value="" style="endArrow=none;html=1;rounded=0;fontSize=8;strokeWidth=1;" edge="1" parent="1">
          <mxGeometry width="50" height="50" relative="1" as="geometry">
            <mxPoint x="690" y="330" as="sourcePoint" />
            <mxPoint x="690" y="350" as="targetPoint" />
          </mxGeometry>
        </mxCell>
        <mxCell id="knf7CLASAOUDxc3e1Ml9-54" value="" style="endArrow=none;html=1;rounded=0;fontSize=8;strokeWidth=1;" edge="1" parent="1">
          <mxGeometry width="50" height="50" relative="1" as="geometry">
            <mxPoint x="790" y="330.00000000000006" as="sourcePoint" />
            <mxPoint x="790" y="350.00000000000006" as="targetPoint" />
          </mxGeometry>
        </mxCell>
        <mxCell id="knf7CLASAOUDxc3e1Ml9-55" value="" style="endArrow=none;html=1;rounded=0;fontSize=8;strokeWidth=1;" edge="1" parent="1">
          <mxGeometry width="50" height="50" relative="1" as="geometry">
            <mxPoint x="730" y="290" as="sourcePoint" />
            <mxPoint x="690" y="330.00000000000006" as="targetPoint" />
          </mxGeometry>
        </mxCell>
        <mxCell id="knf7CLASAOUDxc3e1Ml9-56" value="" style="endArrow=none;html=1;rounded=0;fontSize=8;strokeWidth=1;" edge="1" parent="1">
          <mxGeometry width="50" height="50" relative="1" as="geometry">
            <mxPoint x="750" y="290" as="sourcePoint" />
            <mxPoint x="730" y="290" as="targetPoint" />
          </mxGeometry>
        </mxCell>
        <mxCell id="knf7CLASAOUDxc3e1Ml9-57" value="" style="endArrow=none;html=1;rounded=0;fontSize=8;strokeWidth=1;" edge="1" parent="1">
          <mxGeometry width="50" height="50" relative="1" as="geometry">
            <mxPoint x="790" y="330" as="sourcePoint" />
            <mxPoint x="750" y="290.00000000000006" as="targetPoint" />
          </mxGeometry>
        </mxCell>
        <mxCell id="knf7CLASAOUDxc3e1Ml9-58" value="" style="shape=waypoint;sketch=0;size=6;pointerEvents=1;points=[];fillColor=none;resizable=0;rotatable=0;perimeter=centerPerimeter;snapToPoint=1;fontSize=8;" vertex="1" parent="1">
          <mxGeometry x="690" y="470" width="40" height="40" as="geometry" />
        </mxCell>
        <mxCell id="knf7CLASAOUDxc3e1Ml9-59" value="" style="shape=waypoint;sketch=0;size=6;pointerEvents=1;points=[];fillColor=none;resizable=0;rotatable=0;perimeter=centerPerimeter;snapToPoint=1;fontSize=8;fontColor=#FF3333;strokeColor=#FF0000;" vertex="1" parent="1">
          <mxGeometry x="660" y="500" width="40" height="40" as="geometry" />
        </mxCell>
        <mxCell id="knf7CLASAOUDxc3e1Ml9-60" value="" style="shape=waypoint;sketch=0;size=6;pointerEvents=1;points=[];fillColor=none;resizable=0;rotatable=0;perimeter=centerPerimeter;snapToPoint=1;fontSize=8;fontColor=#FF3333;strokeColor=#000000;" vertex="1" parent="1">
          <mxGeometry x="750" y="470" width="40" height="40" as="geometry" />
        </mxCell>
        <mxCell id="knf7CLASAOUDxc3e1Ml9-61" value="" style="shape=waypoint;sketch=0;size=6;pointerEvents=1;points=[];fillColor=none;resizable=0;rotatable=0;perimeter=centerPerimeter;snapToPoint=1;fontSize=8;fontColor=#FF3333;strokeColor=#000000;" vertex="1" parent="1">
          <mxGeometry x="700" y="430" width="40" height="40" as="geometry" />
        </mxCell>
        <mxCell id="knf7CLASAOUDxc3e1Ml9-62" value="" style="shape=waypoint;sketch=0;size=6;pointerEvents=1;points=[];fillColor=none;resizable=0;rotatable=0;perimeter=centerPerimeter;snapToPoint=1;fontSize=8;fontColor=#FF3333;strokeColor=#000000;" vertex="1" parent="1">
          <mxGeometry x="750" y="410" width="40" height="40" as="geometry" />
        </mxCell>
        <mxCell id="knf7CLASAOUDxc3e1Ml9-63" value="" style="shape=waypoint;sketch=0;size=6;pointerEvents=1;points=[];fillColor=none;resizable=0;rotatable=0;perimeter=centerPerimeter;snapToPoint=1;fontSize=8;fontColor=#FF3333;strokeColor=#000000;" vertex="1" parent="1">
          <mxGeometry x="740" y="430" width="40" height="40" as="geometry" />
        </mxCell>
        <mxCell id="knf7CLASAOUDxc3e1Ml9-64" value="" style="shape=waypoint;sketch=0;size=6;pointerEvents=1;points=[];fillColor=none;resizable=0;rotatable=0;perimeter=centerPerimeter;snapToPoint=1;fontSize=8;fontColor=#FF3333;strokeColor=#000000;" vertex="1" parent="1">
          <mxGeometry x="700" y="490" width="40" height="40" as="geometry" />
        </mxCell>
        <mxCell id="knf7CLASAOUDxc3e1Ml9-65" value="" style="shape=waypoint;sketch=0;size=6;pointerEvents=1;points=[];fillColor=none;resizable=0;rotatable=0;perimeter=centerPerimeter;snapToPoint=1;fontSize=8;fontColor=#FF3333;strokeColor=#000000;" vertex="1" parent="1">
          <mxGeometry x="660" y="470" width="40" height="40" as="geometry" />
        </mxCell>
        <mxCell id="knf7CLASAOUDxc3e1Ml9-66" value="" style="shape=waypoint;sketch=0;size=6;pointerEvents=1;points=[];fillColor=none;resizable=0;rotatable=0;perimeter=centerPerimeter;snapToPoint=1;fontSize=8;fontColor=#FF3333;strokeColor=#000000;" vertex="1" parent="1">
          <mxGeometry x="680" y="430" width="40" height="40" as="geometry" />
        </mxCell>
        <mxCell id="knf7CLASAOUDxc3e1Ml9-68" value="" style="endArrow=none;dashed=1;html=1;rounded=0;fontSize=8;fontColor=#FF3333;strokeWidth=1;" edge="1" parent="1" source="knf7CLASAOUDxc3e1Ml9-64" target="knf7CLASAOUDxc3e1Ml9-60">
          <mxGeometry width="50" height="50" relative="1" as="geometry">
            <mxPoint x="710" y="520" as="sourcePoint" />
            <mxPoint x="760" y="470" as="targetPoint" />
          </mxGeometry>
        </mxCell>
        <mxCell id="knf7CLASAOUDxc3e1Ml9-69" value="" style="endArrow=none;dashed=1;html=1;rounded=0;fontSize=8;fontColor=#FF3333;strokeWidth=1;" edge="1" parent="1" source="knf7CLASAOUDxc3e1Ml9-62">
          <mxGeometry width="50" height="50" relative="1" as="geometry">
            <mxPoint x="720" y="540" as="sourcePoint" />
            <mxPoint x="770" y="490" as="targetPoint" />
          </mxGeometry>
        </mxCell>
        <mxCell id="knf7CLASAOUDxc3e1Ml9-73" value="" style="endArrow=none;dashed=1;html=1;rounded=0;fontSize=8;fontColor=#FF3333;strokeWidth=1;" edge="1" parent="1" target="knf7CLASAOUDxc3e1Ml9-64">
          <mxGeometry width="50" height="50" relative="1" as="geometry">
            <mxPoint x="680" y="490" as="sourcePoint" />
            <mxPoint x="730" y="440" as="targetPoint" />
          </mxGeometry>
        </mxCell>
        <mxCell id="knf7CLASAOUDxc3e1Ml9-74" value="" style="endArrow=none;dashed=1;html=1;rounded=0;fontSize=8;fontColor=#FF3333;strokeWidth=1;" edge="1" parent="1">
          <mxGeometry width="50" height="50" relative="1" as="geometry">
            <mxPoint x="680" y="490" as="sourcePoint" />
            <mxPoint x="700" y="450" as="targetPoint" />
          </mxGeometry>
        </mxCell>
        <mxCell id="knf7CLASAOUDxc3e1Ml9-75" value="" style="endArrow=none;dashed=1;html=1;rounded=0;fontSize=8;fontColor=#FF3333;strokeWidth=1;entryX=0.473;entryY=0.428;entryDx=0;entryDy=0;entryPerimeter=0;" edge="1" parent="1" target="knf7CLASAOUDxc3e1Ml9-62">
          <mxGeometry width="50" height="50" relative="1" as="geometry">
            <mxPoint x="700" y="450" as="sourcePoint" />
            <mxPoint x="750" y="400" as="targetPoint" />
          </mxGeometry>
        </mxCell>
      </root>
    </mxGraphModel>
  </diagram>
</mxfile>
